<svg width="32" height="32" viewBox="0 0 32 32" fill="none" xmlns="http://www.w3.org/2000/svg">
<path d="M12.889 28.4445C13.6254 28.4445 14.2223 27.8475 14.2223 27.1112C14.2223 26.3748 13.6254 25.7778 12.889 25.7778C12.1526 25.7778 11.5557 26.3748 11.5557 27.1112C11.5557 27.8475 12.1526 28.4445 12.889 28.4445Z" fill="black" stroke="black" stroke-width="2" stroke-linecap="round" stroke-linejoin="round"/>
<path d="M25.3333 28.4445C26.0697 28.4445 26.6667 27.8475 26.6667 27.1112C26.6667 26.3748 26.0697 25.7778 25.3333 25.7778C24.597 25.7778 24 26.3748 24 27.1112C24 27.8475 24.597 28.4445 25.3333 28.4445Z" fill="black" stroke="black" stroke-width="2" stroke-linecap="round" stroke-linejoin="round"/>
<path d="M2.66699 2.66675H7.51548L10.764 18.536C10.8748 19.0816 11.1784 19.5718 11.6216 19.9206C12.0648 20.2694 12.6194 20.4548 13.1882 20.4441H24.97C25.5389 20.4548 26.0934 20.2694 26.5366 19.9206C26.9798 19.5718 27.2834 19.0816 27.3943 18.536L29.3337 8.59253H8.7276" stroke="black" stroke-width="2" stroke-linecap="round" stroke-linejoin="round"/>
</svg>
